<?xml version="1.0" encoding="UTF-8"?><!DOCTYPE svg PUBLIC "-//W3C//DTD SVG 1.1//EN" "http://www.w3.org/Graphics/SVG/1.1/DTD/svg11.dtd"><svg xmlns="http://www.w3.org/2000/svg" xmlns:xlink="http://www.w3.org/1999/xlink" version="1.1" id="Basecamp" x="0px" y="0px" viewBox="0 0 20 20" xml:space="preserve"><path d="M10 2C5.327 2 .7 8.481.7 14.422.7 15.799 5.234 18 10 18s9.3-2.201 9.3-3.578C19.3 8.481 14.673 2 10 2zm.006 13.615c-5.198 0-6.673-2.068-6.673-2.722 0-1.287 2.13-4.485 2.906-4.485.719 0 1.542 1.811 2.314 1.811 1.241 0 2.567-3.954 3.579-3.954s4.601 5.178 4.601 6.749c0 .271-1.084 2.601-6.727 2.601z"/><metadata><rdf:RDF xmlns:rdf="http://www.w3.org/1999/02/22-rdf-syntax-ns#" xmlns:rdfs="http://www.w3.org/2000/01/rdf-schema#" xmlns:dc="http://purl.org/dc/elements/1.1/"><rdf:Description about="https://iconscout.com/legal#licenses" dc:title="basecamp" dc:description="basecamp" dc:publisher="Iconscout" dc:date="2017-09-14" dc:format="image/svg+xml" dc:language="en"><dc:creator><rdf:Bag><rdf:li>Daniel Bruce</rdf:li></rdf:Bag></dc:creator></rdf:Description></rdf:RDF></metadata></svg>